<svg xmlns:rdf="http://www.w3.org/1999/02/22-rdf-syntax-ns#" xmlns="http://www.w3.org/2000/svg" height="26" width="26" version="1.1" xmlns:cc="http://creativecommons.org/ns#" xmlns:xlink="http://www.w3.org/1999/xlink" xmlns:dc="http://purl.org/dc/elements/1.1/" style=""><rect id="backgroundrect" width="100%" height="100%" x="0" y="0" fill="none" stroke="none"/>

 <metadata>

  <rdf:RDF>

   <cc:Work rdf:about="">

    <dc:format>image/svg+xml</dc:format>

    <dc:type rdf:resource="http://purl.org/dc/dcmitype/StillImage"/>

    <dc:title/>

   </cc:Work>

  </rdf:RDF>

 </metadata>

 

 

 

 

 

 

<g class="currentLayer" style=""><title>Layer 1</title><path stroke-linejoin="miter" style="enable-background:accumulate;color:#000000;" d="m13,6.5c3.8079,0,4.5,11,4.5,11-3.5,1.5-5.5,1.5-9,0,0,0,0.69211-11,4.5-11z" stroke-dashoffset="0" stroke="#000" stroke-linecap="butt" stroke-miterlimit="4" stroke-dasharray="none" stroke-width="1" fill="#FFF" id="svg_1"/><path stroke-linejoin="miter" style="enable-background:accumulate;color:#000000;" d="m7.5,21c-0.59238,1.9746,1.5234,2.5,5.5,2.5s6.0924-0.52539,5.5-2.5c-1.5-5-2.543-3.5-5.5-3.5s-4-1.5-5.5,3.5z" stroke-dashoffset="0" stroke="#000" stroke-linecap="butt" stroke-miterlimit="4" stroke-dasharray="none" stroke-width="1" fill="#ffffff" id="svg_2" class="" fill-opacity="1"/><use xlink:href="#path5381" transform="matrix(-1, 0, 0, 1, 26, 0)" height="26" width="26" y="0" x="0" id="svg_3" class=""/><use xlink:href="#path4871" transform="matrix(-1, 0, 0, 1, 26, 0)" height="26" width="26" y="0" x="0" id="svg_4" class=""/><path id="path5381" stroke-linejoin="miter" style="enable-background:accumulate;color:#000000;" d="M3.5,19.5c-6.5-11.5,0.5-23.5,9.5-13-0.96489,4.1612-1.1124,7.8988-4.5,11,0-10-6.5-13.5-5,2z" stroke-dashoffset="0" stroke="#000" stroke-linecap="butt" stroke-miterlimit="4" stroke-dasharray="none" stroke-width="1" fill="#000000" class="" fill-opacity="1"/><path id="path4871" stroke-linejoin="miter" d="m5.9999612822522295,20.49990348306983 a2.5000263284584605,2.5000018557797716 0 1 1 -4.999951504489047,0 a2.5000263284584605,2.5000018557797716 0 1 1 4.999951504489047,0 z" stroke-dashoffset="0" stroke="#000" stroke-linecap="square" stroke-miterlimit="4" stroke-dasharray="none" stroke-width="1.09886306000000000" fill="#FFF"/></g></svg>